<mxfile host="app.diagrams.net" modified="2023-07-25T13:53:10.548Z" agent="Mozilla/5.0 (Windows NT 10.0; Win64; x64) AppleWebKit/537.36 (KHTML, like Gecko) Chrome/114.0.0.0 Safari/537.36" etag="vPyD-miP0qVJItou5uMT" version="21.6.3" type="device">
  <diagram name="Page-1" id="vClMd_My76wcRRr-QNmz">
    <mxGraphModel dx="3125" dy="1004" grid="1" gridSize="10" guides="1" tooltips="1" connect="1" arrows="1" fold="1" page="1" pageScale="1" pageWidth="1169" pageHeight="1654" math="0" shadow="0">
      <root>
        <mxCell id="0" />
        <mxCell id="1" parent="0" />
        <mxCell id="NcGJeMchaAb6jBYALzay-3" value="" style="edgeStyle=orthogonalEdgeStyle;rounded=0;orthogonalLoop=1;jettySize=auto;html=1;" edge="1" parent="1" source="NcGJeMchaAb6jBYALzay-1" target="NcGJeMchaAb6jBYALzay-2">
          <mxGeometry relative="1" as="geometry" />
        </mxCell>
        <mxCell id="NcGJeMchaAb6jBYALzay-1" value="start" style="ellipse;whiteSpace=wrap;html=1;fillColor=#dae8fc;strokeColor=#6c8ebf;" vertex="1" parent="1">
          <mxGeometry x="599.86" y="110" width="80" height="40" as="geometry" />
        </mxCell>
        <mxCell id="NcGJeMchaAb6jBYALzay-5" value="a" style="edgeStyle=orthogonalEdgeStyle;rounded=0;orthogonalLoop=1;jettySize=auto;html=1;" edge="1" parent="1" source="NcGJeMchaAb6jBYALzay-2" target="NcGJeMchaAb6jBYALzay-4">
          <mxGeometry x="-0.3548" y="-5" relative="1" as="geometry">
            <Array as="points">
              <mxPoint x="839.86" y="245" />
            </Array>
            <mxPoint as="offset" />
          </mxGeometry>
        </mxCell>
        <mxCell id="NcGJeMchaAb6jBYALzay-23" value="b" style="edgeStyle=orthogonalEdgeStyle;rounded=0;orthogonalLoop=1;jettySize=auto;html=1;" edge="1" parent="1" source="NcGJeMchaAb6jBYALzay-2" target="NcGJeMchaAb6jBYALzay-22">
          <mxGeometry relative="1" as="geometry" />
        </mxCell>
        <mxCell id="NcGJeMchaAb6jBYALzay-2" value="&lt;div&gt;&lt;span style=&quot;background-color: initial;&quot;&gt;select&lt;/span&gt;&lt;/div&gt;&lt;div&gt;&lt;span style=&quot;background-color: initial;&quot;&gt;a)Create new account&lt;/span&gt;&lt;br&gt;&lt;/div&gt;&lt;div&gt;b)Already have an account&lt;/div&gt;" style="rhombus;whiteSpace=wrap;html=1;fillColor=#fff2cc;strokeColor=#d6b656;" vertex="1" parent="1">
          <mxGeometry x="539.86" y="180" width="200" height="130" as="geometry" />
        </mxCell>
        <mxCell id="NcGJeMchaAb6jBYALzay-7" value="" style="edgeStyle=orthogonalEdgeStyle;rounded=0;orthogonalLoop=1;jettySize=auto;html=1;" edge="1" parent="1" source="NcGJeMchaAb6jBYALzay-4" target="NcGJeMchaAb6jBYALzay-6">
          <mxGeometry relative="1" as="geometry" />
        </mxCell>
        <mxCell id="NcGJeMchaAb6jBYALzay-4" value="Enter username" style="whiteSpace=wrap;html=1;fillColor=#d5e8d4;strokeColor=#82b366;" vertex="1" parent="1">
          <mxGeometry x="779.86" y="300" width="120" height="60" as="geometry" />
        </mxCell>
        <mxCell id="NcGJeMchaAb6jBYALzay-9" value="true" style="edgeStyle=orthogonalEdgeStyle;rounded=0;orthogonalLoop=1;jettySize=auto;html=1;" edge="1" parent="1" source="NcGJeMchaAb6jBYALzay-6" target="NcGJeMchaAb6jBYALzay-8">
          <mxGeometry relative="1" as="geometry" />
        </mxCell>
        <mxCell id="NcGJeMchaAb6jBYALzay-12" value="false" style="edgeStyle=orthogonalEdgeStyle;rounded=0;orthogonalLoop=1;jettySize=auto;html=1;" edge="1" parent="1" source="NcGJeMchaAb6jBYALzay-6" target="NcGJeMchaAb6jBYALzay-11">
          <mxGeometry relative="1" as="geometry" />
        </mxCell>
        <mxCell id="NcGJeMchaAb6jBYALzay-6" value="Check name existence" style="rhombus;whiteSpace=wrap;html=1;fillColor=#fff2cc;strokeColor=#d6b656;" vertex="1" parent="1">
          <mxGeometry x="784.86" y="400" width="110" height="80" as="geometry" />
        </mxCell>
        <mxCell id="NcGJeMchaAb6jBYALzay-10" style="edgeStyle=orthogonalEdgeStyle;rounded=0;orthogonalLoop=1;jettySize=auto;html=1;exitX=0.5;exitY=0;exitDx=0;exitDy=0;entryX=0.75;entryY=0;entryDx=0;entryDy=0;" edge="1" parent="1" source="NcGJeMchaAb6jBYALzay-8" target="NcGJeMchaAb6jBYALzay-4">
          <mxGeometry relative="1" as="geometry">
            <Array as="points">
              <mxPoint x="1009.86" y="250" />
              <mxPoint x="869.86" y="250" />
            </Array>
          </mxGeometry>
        </mxCell>
        <mxCell id="NcGJeMchaAb6jBYALzay-8" value="Username already exist" style="whiteSpace=wrap;html=1;fillColor=#d5e8d4;strokeColor=#82b366;" vertex="1" parent="1">
          <mxGeometry x="949.86" y="410" width="120" height="60" as="geometry" />
        </mxCell>
        <mxCell id="NcGJeMchaAb6jBYALzay-14" value="" style="edgeStyle=orthogonalEdgeStyle;rounded=0;orthogonalLoop=1;jettySize=auto;html=1;" edge="1" parent="1" source="NcGJeMchaAb6jBYALzay-11" target="NcGJeMchaAb6jBYALzay-13">
          <mxGeometry relative="1" as="geometry" />
        </mxCell>
        <mxCell id="NcGJeMchaAb6jBYALzay-11" value="enter Password&lt;br&gt;in pass_1" style="whiteSpace=wrap;html=1;fillColor=#d5e8d4;strokeColor=#82b366;" vertex="1" parent="1">
          <mxGeometry x="779.86" y="520" width="120" height="60" as="geometry" />
        </mxCell>
        <mxCell id="NcGJeMchaAb6jBYALzay-16" value="" style="edgeStyle=orthogonalEdgeStyle;rounded=0;orthogonalLoop=1;jettySize=auto;html=1;" edge="1" parent="1" source="NcGJeMchaAb6jBYALzay-13" target="NcGJeMchaAb6jBYALzay-15">
          <mxGeometry relative="1" as="geometry" />
        </mxCell>
        <mxCell id="NcGJeMchaAb6jBYALzay-13" value="Verify password&lt;br&gt;in pass_2" style="whiteSpace=wrap;html=1;fillColor=#d5e8d4;strokeColor=#82b366;" vertex="1" parent="1">
          <mxGeometry x="779.86" y="620" width="120" height="60" as="geometry" />
        </mxCell>
        <mxCell id="NcGJeMchaAb6jBYALzay-18" value="fasle" style="edgeStyle=orthogonalEdgeStyle;rounded=0;orthogonalLoop=1;jettySize=auto;html=1;" edge="1" parent="1" source="NcGJeMchaAb6jBYALzay-15" target="NcGJeMchaAb6jBYALzay-17">
          <mxGeometry relative="1" as="geometry" />
        </mxCell>
        <mxCell id="NcGJeMchaAb6jBYALzay-21" value="true" style="edgeStyle=orthogonalEdgeStyle;rounded=0;orthogonalLoop=1;jettySize=auto;html=1;" edge="1" parent="1" source="NcGJeMchaAb6jBYALzay-15" target="NcGJeMchaAb6jBYALzay-20">
          <mxGeometry x="-0.4444" relative="1" as="geometry">
            <Array as="points">
              <mxPoint x="649.86" y="765" />
            </Array>
            <mxPoint as="offset" />
          </mxGeometry>
        </mxCell>
        <mxCell id="NcGJeMchaAb6jBYALzay-15" value="If ( pass_1 == pass_2)" style="rhombus;whiteSpace=wrap;html=1;fillColor=#fff2cc;strokeColor=#d6b656;" vertex="1" parent="1">
          <mxGeometry x="774.86" y="720" width="130" height="90" as="geometry" />
        </mxCell>
        <mxCell id="NcGJeMchaAb6jBYALzay-19" style="edgeStyle=orthogonalEdgeStyle;rounded=0;orthogonalLoop=1;jettySize=auto;html=1;exitX=1;exitY=0.5;exitDx=0;exitDy=0;entryX=1;entryY=0.5;entryDx=0;entryDy=0;" edge="1" parent="1" source="NcGJeMchaAb6jBYALzay-17" target="NcGJeMchaAb6jBYALzay-11">
          <mxGeometry relative="1" as="geometry" />
        </mxCell>
        <mxCell id="NcGJeMchaAb6jBYALzay-17" value="Password doesnâ€™t match" style="whiteSpace=wrap;html=1;fillColor=#d5e8d4;strokeColor=#82b366;" vertex="1" parent="1">
          <mxGeometry x="959.86" y="735" width="120" height="60" as="geometry" />
        </mxCell>
        <mxCell id="NcGJeMchaAb6jBYALzay-37" style="edgeStyle=orthogonalEdgeStyle;rounded=0;orthogonalLoop=1;jettySize=auto;html=1;exitX=0.5;exitY=1;exitDx=0;exitDy=0;entryX=0.5;entryY=0;entryDx=0;entryDy=0;" edge="1" parent="1" source="NcGJeMchaAb6jBYALzay-20" target="NcGJeMchaAb6jBYALzay-36">
          <mxGeometry relative="1" as="geometry" />
        </mxCell>
        <mxCell id="NcGJeMchaAb6jBYALzay-20" value="Login success" style="whiteSpace=wrap;html=1;fillColor=#d5e8d4;strokeColor=#82b366;" vertex="1" parent="1">
          <mxGeometry x="569.86" y="890" width="120" height="60" as="geometry" />
        </mxCell>
        <mxCell id="NcGJeMchaAb6jBYALzay-25" value="" style="edgeStyle=orthogonalEdgeStyle;rounded=0;orthogonalLoop=1;jettySize=auto;html=1;" edge="1" parent="1" source="NcGJeMchaAb6jBYALzay-22" target="NcGJeMchaAb6jBYALzay-24">
          <mxGeometry relative="1" as="geometry" />
        </mxCell>
        <mxCell id="NcGJeMchaAb6jBYALzay-22" value="Enter username" style="whiteSpace=wrap;html=1;fillColor=#d5e8d4;strokeColor=#82b366;" vertex="1" parent="1">
          <mxGeometry x="349.86" y="215" width="120" height="60" as="geometry" />
        </mxCell>
        <mxCell id="NcGJeMchaAb6jBYALzay-27" value="" style="edgeStyle=orthogonalEdgeStyle;rounded=0;orthogonalLoop=1;jettySize=auto;html=1;" edge="1" parent="1" source="NcGJeMchaAb6jBYALzay-24" target="NcGJeMchaAb6jBYALzay-26">
          <mxGeometry relative="1" as="geometry" />
        </mxCell>
        <mxCell id="NcGJeMchaAb6jBYALzay-24" value="enter Password" style="whiteSpace=wrap;html=1;fillColor=#d5e8d4;strokeColor=#82b366;" vertex="1" parent="1">
          <mxGeometry x="349.86" y="320" width="120" height="60" as="geometry" />
        </mxCell>
        <mxCell id="NcGJeMchaAb6jBYALzay-28" value="true" style="edgeStyle=orthogonalEdgeStyle;rounded=0;orthogonalLoop=1;jettySize=auto;html=1;exitX=1;exitY=0.5;exitDx=0;exitDy=0;entryX=0.25;entryY=0;entryDx=0;entryDy=0;" edge="1" parent="1" source="NcGJeMchaAb6jBYALzay-26" target="NcGJeMchaAb6jBYALzay-20">
          <mxGeometry relative="1" as="geometry" />
        </mxCell>
        <mxCell id="NcGJeMchaAb6jBYALzay-30" value="false" style="edgeStyle=orthogonalEdgeStyle;rounded=0;orthogonalLoop=1;jettySize=auto;html=1;" edge="1" parent="1" source="NcGJeMchaAb6jBYALzay-26" target="NcGJeMchaAb6jBYALzay-29">
          <mxGeometry relative="1" as="geometry" />
        </mxCell>
        <mxCell id="NcGJeMchaAb6jBYALzay-26" value="Verify account name and password" style="rhombus;whiteSpace=wrap;html=1;fillColor=#fff2cc;strokeColor=#d6b656;" vertex="1" parent="1">
          <mxGeometry x="344.86" y="430" width="130" height="115" as="geometry" />
        </mxCell>
        <mxCell id="NcGJeMchaAb6jBYALzay-32" value="" style="edgeStyle=orthogonalEdgeStyle;rounded=0;orthogonalLoop=1;jettySize=auto;html=1;" edge="1" parent="1" source="NcGJeMchaAb6jBYALzay-29" target="NcGJeMchaAb6jBYALzay-31">
          <mxGeometry relative="1" as="geometry" />
        </mxCell>
        <mxCell id="NcGJeMchaAb6jBYALzay-29" value="wrong password Count++" style="whiteSpace=wrap;html=1;fillColor=#d5e8d4;strokeColor=#82b366;" vertex="1" parent="1">
          <mxGeometry x="169.86" y="457.5" width="120" height="60" as="geometry" />
        </mxCell>
        <mxCell id="NcGJeMchaAb6jBYALzay-34" value="true" style="edgeStyle=orthogonalEdgeStyle;rounded=0;orthogonalLoop=1;jettySize=auto;html=1;" edge="1" parent="1" source="NcGJeMchaAb6jBYALzay-31" target="NcGJeMchaAb6jBYALzay-33">
          <mxGeometry relative="1" as="geometry" />
        </mxCell>
        <mxCell id="NcGJeMchaAb6jBYALzay-35" value="false" style="edgeStyle=orthogonalEdgeStyle;rounded=0;orthogonalLoop=1;jettySize=auto;html=1;exitX=0;exitY=0.5;exitDx=0;exitDy=0;entryX=0.5;entryY=0;entryDx=0;entryDy=0;" edge="1" parent="1" source="NcGJeMchaAb6jBYALzay-31" target="NcGJeMchaAb6jBYALzay-22">
          <mxGeometry x="-0.4019" relative="1" as="geometry">
            <Array as="points">
              <mxPoint x="89.86000000000001" y="634" />
              <mxPoint x="89.86000000000001" y="195" />
              <mxPoint x="409.86" y="195" />
            </Array>
            <mxPoint as="offset" />
          </mxGeometry>
        </mxCell>
        <mxCell id="NcGJeMchaAb6jBYALzay-31" value="if (wrong password Count == 3)" style="rhombus;whiteSpace=wrap;html=1;fillColor=#fff2cc;strokeColor=#d6b656;" vertex="1" parent="1">
          <mxGeometry x="129.86" y="587.5" width="200" height="92.5" as="geometry" />
        </mxCell>
        <mxCell id="NcGJeMchaAb6jBYALzay-38" style="edgeStyle=orthogonalEdgeStyle;rounded=0;orthogonalLoop=1;jettySize=auto;html=1;exitX=0.5;exitY=1;exitDx=0;exitDy=0;entryX=0;entryY=0.5;entryDx=0;entryDy=0;" edge="1" parent="1" source="NcGJeMchaAb6jBYALzay-33" target="NcGJeMchaAb6jBYALzay-36">
          <mxGeometry relative="1" as="geometry" />
        </mxCell>
        <mxCell id="NcGJeMchaAb6jBYALzay-33" value="Account Lock" style="whiteSpace=wrap;html=1;fillColor=#d5e8d4;strokeColor=#82b366;" vertex="1" parent="1">
          <mxGeometry x="419.86" y="603.75" width="120" height="60" as="geometry" />
        </mxCell>
        <mxCell id="NcGJeMchaAb6jBYALzay-36" value="End" style="ellipse;whiteSpace=wrap;html=1;fillColor=#dae8fc;strokeColor=#6c8ebf;" vertex="1" parent="1">
          <mxGeometry x="589.86" y="980" width="80" height="40" as="geometry" />
        </mxCell>
        <mxCell id="NcGJeMchaAb6jBYALzay-39" value="draw the login functionality flowchart that will help the developer to implement this functionality" style="text;html=1;strokeColor=#666666;fillColor=#f5f5f5;align=center;verticalAlign=middle;whiteSpace=wrap;rounded=0;fontColor=#333333;" vertex="1" parent="1">
          <mxGeometry x="369.86" y="70" width="560" height="30" as="geometry" />
        </mxCell>
        <mxCell id="NcGJeMchaAb6jBYALzay-46" value="" style="shape=umlLifeline;perimeter=lifelinePerimeter;whiteSpace=wrap;html=1;container=1;dropTarget=0;collapsible=0;recursiveResize=0;outlineConnect=0;portConstraint=eastwest;newEdgeStyle={&quot;edgeStyle&quot;:&quot;elbowEdgeStyle&quot;,&quot;elbow&quot;:&quot;vertical&quot;,&quot;curved&quot;:0,&quot;rounded&quot;:0};participant=umlActor;fillColor=#ffe6cc;strokeColor=#d79b00;" vertex="1" parent="1">
          <mxGeometry x="-1020" y="130" width="20" height="880" as="geometry" />
        </mxCell>
        <mxCell id="NcGJeMchaAb6jBYALzay-72" value="" style="html=1;points=[];perimeter=orthogonalPerimeter;outlineConnect=0;targetShapes=umlLifeline;portConstraint=eastwest;newEdgeStyle={&quot;edgeStyle&quot;:&quot;elbowEdgeStyle&quot;,&quot;elbow&quot;:&quot;vertical&quot;,&quot;curved&quot;:0,&quot;rounded&quot;:0};fillColor=#d5e8d4;strokeColor=#82b366;" vertex="1" parent="NcGJeMchaAb6jBYALzay-46">
          <mxGeometry x="5" y="70" width="10" height="120" as="geometry" />
        </mxCell>
        <mxCell id="NcGJeMchaAb6jBYALzay-81" value="" style="html=1;points=[];perimeter=orthogonalPerimeter;outlineConnect=0;targetShapes=umlLifeline;portConstraint=eastwest;newEdgeStyle={&quot;edgeStyle&quot;:&quot;elbowEdgeStyle&quot;,&quot;elbow&quot;:&quot;vertical&quot;,&quot;curved&quot;:0,&quot;rounded&quot;:0};fillColor=#d5e8d4;strokeColor=#82b366;" vertex="1" parent="NcGJeMchaAb6jBYALzay-46">
          <mxGeometry x="5" y="377" width="10" height="30" as="geometry" />
        </mxCell>
        <mxCell id="NcGJeMchaAb6jBYALzay-80" value="" style="html=1;points=[];perimeter=orthogonalPerimeter;outlineConnect=0;targetShapes=umlLifeline;portConstraint=eastwest;newEdgeStyle={&quot;edgeStyle&quot;:&quot;elbowEdgeStyle&quot;,&quot;elbow&quot;:&quot;vertical&quot;,&quot;curved&quot;:0,&quot;rounded&quot;:0};fillColor=#d5e8d4;strokeColor=#82b366;" vertex="1" parent="NcGJeMchaAb6jBYALzay-46">
          <mxGeometry x="5" y="276" width="10" height="30" as="geometry" />
        </mxCell>
        <mxCell id="NcGJeMchaAb6jBYALzay-134" value="" style="html=1;points=[];perimeter=orthogonalPerimeter;outlineConnect=0;targetShapes=umlLifeline;portConstraint=eastwest;newEdgeStyle={&quot;edgeStyle&quot;:&quot;elbowEdgeStyle&quot;,&quot;elbow&quot;:&quot;vertical&quot;,&quot;curved&quot;:0,&quot;rounded&quot;:0};fillColor=#d5e8d4;strokeColor=#82b366;" vertex="1" parent="NcGJeMchaAb6jBYALzay-46">
          <mxGeometry x="5" y="500" width="10" height="340" as="geometry" />
        </mxCell>
        <mxCell id="NcGJeMchaAb6jBYALzay-47" value="Front End" style="shape=umlLifeline;perimeter=lifelinePerimeter;whiteSpace=wrap;html=1;container=1;dropTarget=0;collapsible=0;recursiveResize=0;outlineConnect=0;portConstraint=eastwest;newEdgeStyle={&quot;edgeStyle&quot;:&quot;elbowEdgeStyle&quot;,&quot;elbow&quot;:&quot;vertical&quot;,&quot;curved&quot;:0,&quot;rounded&quot;:0};fillColor=#ffe6cc;strokeColor=#d79b00;" vertex="1" parent="1">
          <mxGeometry x="-650" y="130" width="100" height="900" as="geometry" />
        </mxCell>
        <mxCell id="NcGJeMchaAb6jBYALzay-69" value="" style="html=1;points=[];perimeter=orthogonalPerimeter;outlineConnect=0;targetShapes=umlLifeline;portConstraint=eastwest;newEdgeStyle={&quot;edgeStyle&quot;:&quot;elbowEdgeStyle&quot;,&quot;elbow&quot;:&quot;vertical&quot;,&quot;curved&quot;:0,&quot;rounded&quot;:0};fillColor=#d5e8d4;strokeColor=#82b366;" vertex="1" parent="NcGJeMchaAb6jBYALzay-47">
          <mxGeometry x="45" y="70" width="10" height="60" as="geometry" />
        </mxCell>
        <mxCell id="NcGJeMchaAb6jBYALzay-71" value="" style="html=1;points=[];perimeter=orthogonalPerimeter;outlineConnect=0;targetShapes=umlLifeline;portConstraint=eastwest;newEdgeStyle={&quot;edgeStyle&quot;:&quot;elbowEdgeStyle&quot;,&quot;elbow&quot;:&quot;vertical&quot;,&quot;curved&quot;:0,&quot;rounded&quot;:0};fillColor=#d5e8d4;strokeColor=#82b366;" vertex="1" parent="NcGJeMchaAb6jBYALzay-47">
          <mxGeometry x="45" y="158" width="10" height="45" as="geometry" />
        </mxCell>
        <mxCell id="NcGJeMchaAb6jBYALzay-77" value="" style="html=1;points=[];perimeter=orthogonalPerimeter;outlineConnect=0;targetShapes=umlLifeline;portConstraint=eastwest;newEdgeStyle={&quot;edgeStyle&quot;:&quot;elbowEdgeStyle&quot;,&quot;elbow&quot;:&quot;vertical&quot;,&quot;curved&quot;:0,&quot;rounded&quot;:0};fillColor=#d5e8d4;strokeColor=#82b366;" vertex="1" parent="NcGJeMchaAb6jBYALzay-47">
          <mxGeometry x="45" y="240" width="10" height="50" as="geometry" />
        </mxCell>
        <mxCell id="NcGJeMchaAb6jBYALzay-48" value="Back End" style="shape=umlLifeline;perimeter=lifelinePerimeter;whiteSpace=wrap;html=1;container=1;dropTarget=0;collapsible=0;recursiveResize=0;outlineConnect=0;portConstraint=eastwest;newEdgeStyle={&quot;edgeStyle&quot;:&quot;elbowEdgeStyle&quot;,&quot;elbow&quot;:&quot;vertical&quot;,&quot;curved&quot;:0,&quot;rounded&quot;:0};fillColor=#ffe6cc;strokeColor=#d79b00;" vertex="1" parent="1">
          <mxGeometry x="-280" y="130" width="100" height="870" as="geometry" />
        </mxCell>
        <mxCell id="NcGJeMchaAb6jBYALzay-73" value="" style="html=1;points=[];perimeter=orthogonalPerimeter;outlineConnect=0;targetShapes=umlLifeline;portConstraint=eastwest;newEdgeStyle={&quot;edgeStyle&quot;:&quot;elbowEdgeStyle&quot;,&quot;elbow&quot;:&quot;vertical&quot;,&quot;curved&quot;:0,&quot;rounded&quot;:0};fillColor=#d5e8d4;strokeColor=#82b366;" vertex="1" parent="NcGJeMchaAb6jBYALzay-48">
          <mxGeometry x="45" y="200" width="10" height="200" as="geometry" />
        </mxCell>
        <mxCell id="NcGJeMchaAb6jBYALzay-52" value="a) Do you have account&lt;br&gt;b) create new account" style="html=1;verticalAlign=bottom;endArrow=block;edgeStyle=elbowEdgeStyle;elbow=horizontal;curved=0;rounded=0;" edge="1" parent="1">
          <mxGeometry width="80" relative="1" as="geometry">
            <mxPoint x="-600.5" y="200" as="sourcePoint" />
            <mxPoint x="-1010.5" y="200" as="targetPoint" />
          </mxGeometry>
        </mxCell>
        <mxCell id="NcGJeMchaAb6jBYALzay-53" value="a) already have account" style="html=1;verticalAlign=bottom;endArrow=open;dashed=1;endSize=8;edgeStyle=elbowEdgeStyle;elbow=vertical;curved=0;rounded=0;" edge="1" parent="1">
          <mxGeometry relative="1" as="geometry">
            <mxPoint x="-1015" y="254.58000000000004" as="sourcePoint" />
            <mxPoint x="-605" y="254.58000000000004" as="targetPoint" />
            <Array as="points">
              <mxPoint x="-714.5" y="254.58000000000004" />
              <mxPoint x="-704.5" y="274.58" />
            </Array>
          </mxGeometry>
        </mxCell>
        <mxCell id="NcGJeMchaAb6jBYALzay-54" value="Enter Username / Password" style="html=1;verticalAlign=bottom;endArrow=block;edgeStyle=elbowEdgeStyle;elbow=vertical;curved=0;rounded=0;" edge="1" parent="1">
          <mxGeometry width="80" relative="1" as="geometry">
            <mxPoint x="-600" y="290.33" as="sourcePoint" />
            <mxPoint x="-1010" y="290.33" as="targetPoint" />
          </mxGeometry>
        </mxCell>
        <mxCell id="NcGJeMchaAb6jBYALzay-55" value="write Username / Password" style="html=1;verticalAlign=bottom;endArrow=open;dashed=1;endSize=8;edgeStyle=elbowEdgeStyle;elbow=vertical;curved=0;rounded=0;" edge="1" parent="1">
          <mxGeometry relative="1" as="geometry">
            <mxPoint x="-1010" y="320" as="sourcePoint" />
            <mxPoint x="-600" y="320" as="targetPoint" />
            <Array as="points">
              <mxPoint x="-710" y="320" />
              <mxPoint x="-700" y="340" />
            </Array>
          </mxGeometry>
        </mxCell>
        <mxCell id="NcGJeMchaAb6jBYALzay-56" value="" style="html=1;verticalAlign=bottom;endArrow=block;edgeStyle=elbowEdgeStyle;elbow=vertical;curved=0;rounded=0;" edge="1" parent="1">
          <mxGeometry width="80" relative="1" as="geometry">
            <mxPoint x="-600.5" y="329.5" as="sourcePoint" />
            <mxPoint x="-230.5" y="329.5" as="targetPoint" />
            <Array as="points">
              <mxPoint x="-460" y="329.5" />
              <mxPoint x="-300" y="369.5" />
              <mxPoint x="-360" y="409.5" />
            </Array>
          </mxGeometry>
        </mxCell>
        <mxCell id="NcGJeMchaAb6jBYALzay-57" value="verify Username/ Password" style="edgeLabel;html=1;align=center;verticalAlign=middle;resizable=0;points=[];" vertex="1" connectable="0" parent="NcGJeMchaAb6jBYALzay-56">
          <mxGeometry x="-0.4401" y="1" relative="1" as="geometry">
            <mxPoint x="77" y="-9" as="offset" />
          </mxGeometry>
        </mxCell>
        <mxCell id="NcGJeMchaAb6jBYALzay-58" value="Account Exist" style="html=1;verticalAlign=bottom;endArrow=open;dashed=1;endSize=8;edgeStyle=elbowEdgeStyle;elbow=vertical;curved=0;rounded=0;" edge="1" parent="1">
          <mxGeometry relative="1" as="geometry">
            <mxPoint x="-230.5" y="379.9999999999999" as="sourcePoint" />
            <mxPoint x="-600.6764705882354" y="379.9999999999999" as="targetPoint" />
            <Array as="points">
              <mxPoint x="-290" y="380" />
              <mxPoint x="-419.5" y="440" />
              <mxPoint x="-409.5" y="460" />
            </Array>
          </mxGeometry>
        </mxCell>
        <mxCell id="NcGJeMchaAb6jBYALzay-59" value="Login Success" style="html=1;verticalAlign=bottom;endArrow=open;endSize=8;edgeStyle=elbowEdgeStyle;elbow=vertical;curved=0;rounded=0;" edge="1" parent="1">
          <mxGeometry relative="1" as="geometry">
            <mxPoint x="-600" y="410" as="sourcePoint" />
            <mxPoint x="-1010.6764705882354" y="410.00000000000006" as="targetPoint" />
            <Array as="points">
              <mxPoint x="-660" y="410" />
              <mxPoint x="-789.5" y="470" />
              <mxPoint x="-779.5" y="490" />
            </Array>
          </mxGeometry>
        </mxCell>
        <mxCell id="NcGJeMchaAb6jBYALzay-64" value="if (account_exist == 1 )" style="text;html=1;strokeColor=#666666;fillColor=#f5f5f5;align=center;verticalAlign=middle;whiteSpace=wrap;rounded=0;fontColor=#333333;" vertex="1" parent="1">
          <mxGeometry x="-960" y="350" width="140" height="30" as="geometry" />
        </mxCell>
        <mxCell id="NcGJeMchaAb6jBYALzay-66" value="if (account_exist == 0 )" style="text;html=1;strokeColor=#666666;fillColor=#f5f5f5;align=center;verticalAlign=middle;whiteSpace=wrap;rounded=0;fontColor=#333333;" vertex="1" parent="1">
          <mxGeometry x="-970" y="450" width="140" height="30" as="geometry" />
        </mxCell>
        <mxCell id="NcGJeMchaAb6jBYALzay-68" value="Login Failed" style="html=1;verticalAlign=bottom;endArrow=open;endSize=8;edgeStyle=elbowEdgeStyle;elbow=vertical;curved=0;rounded=0;" edge="1" parent="1" source="NcGJeMchaAb6jBYALzay-78">
          <mxGeometry x="-0.0016" relative="1" as="geometry">
            <mxPoint x="-599.32" y="510" as="sourcePoint" />
            <mxPoint x="-1009.9964705882354" y="510.00000000000006" as="targetPoint" />
            <Array as="points">
              <mxPoint x="-659.32" y="510" />
              <mxPoint x="-788.82" y="570" />
              <mxPoint x="-778.82" y="590" />
            </Array>
            <mxPoint as="offset" />
          </mxGeometry>
        </mxCell>
        <mxCell id="NcGJeMchaAb6jBYALzay-79" value="" style="html=1;verticalAlign=bottom;endArrow=open;endSize=8;edgeStyle=elbowEdgeStyle;elbow=vertical;curved=0;rounded=0;" edge="1" parent="1" target="NcGJeMchaAb6jBYALzay-78">
          <mxGeometry x="-0.0016" relative="1" as="geometry">
            <mxPoint x="-599.32" y="510" as="sourcePoint" />
            <mxPoint x="-1009.9964705882354" y="510.00000000000006" as="targetPoint" />
            <Array as="points" />
            <mxPoint as="offset" />
          </mxGeometry>
        </mxCell>
        <mxCell id="NcGJeMchaAb6jBYALzay-78" value="" style="html=1;points=[];perimeter=orthogonalPerimeter;outlineConnect=0;targetShapes=umlLifeline;portConstraint=eastwest;newEdgeStyle={&quot;edgeStyle&quot;:&quot;elbowEdgeStyle&quot;,&quot;elbow&quot;:&quot;vertical&quot;,&quot;curved&quot;:0,&quot;rounded&quot;:0};fillColor=#d5e8d4;strokeColor=#82b366;" vertex="1" parent="1">
          <mxGeometry x="-605" y="460" width="10" height="77" as="geometry" />
        </mxCell>
        <mxCell id="NcGJeMchaAb6jBYALzay-82" value="frame" style="shape=umlFrame;whiteSpace=wrap;html=1;pointerEvents=0;fillColor=#e1d5e7;strokeColor=#9673a6;" vertex="1" parent="1">
          <mxGeometry x="-1090" y="220" width="960" height="790" as="geometry" />
        </mxCell>
        <mxCell id="NcGJeMchaAb6jBYALzay-83" value="" style="group" vertex="1" connectable="0" parent="1">
          <mxGeometry x="-1030" y="340" width="820" height="200" as="geometry" />
        </mxCell>
        <mxCell id="NcGJeMchaAb6jBYALzay-60" value="frame" style="shape=umlFrame;whiteSpace=wrap;html=1;pointerEvents=0;fillColor=#dae8fc;strokeColor=#6c8ebf;" vertex="1" parent="NcGJeMchaAb6jBYALzay-83">
          <mxGeometry width="820" height="200" as="geometry" />
        </mxCell>
        <mxCell id="NcGJeMchaAb6jBYALzay-65" value="" style="endArrow=none;html=1;rounded=0;fillColor=#dae8fc;strokeColor=#6c8ebf;" edge="1" parent="NcGJeMchaAb6jBYALzay-83">
          <mxGeometry width="50" height="50" relative="1" as="geometry">
            <mxPoint y="99" as="sourcePoint" />
            <mxPoint x="820" y="99" as="targetPoint" />
          </mxGeometry>
        </mxCell>
        <mxCell id="NcGJeMchaAb6jBYALzay-84" value="Account Exist" style="text;html=1;strokeColor=#666666;fillColor=#f5f5f5;align=center;verticalAlign=middle;whiteSpace=wrap;rounded=0;fontColor=#333333;" vertex="1" parent="1">
          <mxGeometry x="-1085" y="260" width="60" height="30" as="geometry" />
        </mxCell>
        <mxCell id="NcGJeMchaAb6jBYALzay-85" value="" style="endArrow=none;html=1;rounded=0;exitX=0;exitY=0.555;exitDx=0;exitDy=0;exitPerimeter=0;entryX=1.002;entryY=0.444;entryDx=0;entryDy=0;entryPerimeter=0;fillColor=#e1d5e7;strokeColor=#9673a6;" edge="1" parent="1" target="NcGJeMchaAb6jBYALzay-82">
          <mxGeometry width="50" height="50" relative="1" as="geometry">
            <mxPoint x="-1090" y="571.7499999999998" as="sourcePoint" />
            <mxPoint x="-180.90999999999985" y="568.25" as="targetPoint" />
          </mxGeometry>
        </mxCell>
        <mxCell id="NcGJeMchaAb6jBYALzay-97" value="New Account" style="text;html=1;strokeColor=#666666;fillColor=#f5f5f5;align=center;verticalAlign=middle;whiteSpace=wrap;rounded=0;fontColor=#333333;" vertex="1" parent="1">
          <mxGeometry x="-1080" y="590" width="60" height="30" as="geometry" />
        </mxCell>
        <mxCell id="NcGJeMchaAb6jBYALzay-67" value="Account Not Exist" style="html=1;verticalAlign=bottom;endArrow=open;dashed=1;endSize=8;edgeStyle=elbowEdgeStyle;elbow=vertical;curved=0;rounded=0;" edge="1" parent="1">
          <mxGeometry relative="1" as="geometry">
            <mxPoint x="-235" y="464.5" as="sourcePoint" />
            <mxPoint x="-599.9964705882354" y="464.4999999999999" as="targetPoint" />
            <Array as="points">
              <mxPoint x="-289.32" y="464.5" />
              <mxPoint x="-418.82" y="524.5" />
              <mxPoint x="-408.82" y="544.5" />
            </Array>
          </mxGeometry>
        </mxCell>
        <mxCell id="NcGJeMchaAb6jBYALzay-99" value="Enter Username / Password" style="html=1;verticalAlign=bottom;endArrow=block;edgeStyle=elbowEdgeStyle;elbow=vertical;curved=0;rounded=0;" edge="1" parent="1">
          <mxGeometry width="80" relative="1" as="geometry">
            <mxPoint x="-600" y="640.62" as="sourcePoint" />
            <mxPoint x="-1010" y="640.62" as="targetPoint" />
          </mxGeometry>
        </mxCell>
        <mxCell id="NcGJeMchaAb6jBYALzay-100" value="write Username / Password" style="html=1;verticalAlign=bottom;endArrow=open;dashed=1;endSize=8;edgeStyle=elbowEdgeStyle;elbow=vertical;curved=0;rounded=0;" edge="1" parent="1">
          <mxGeometry relative="1" as="geometry">
            <mxPoint x="-1009" y="670" as="sourcePoint" />
            <mxPoint x="-599" y="670" as="targetPoint" />
            <Array as="points">
              <mxPoint x="-709" y="670" />
              <mxPoint x="-699" y="690" />
            </Array>
          </mxGeometry>
        </mxCell>
        <mxCell id="NcGJeMchaAb6jBYALzay-101" value="Re-enter the password" style="html=1;verticalAlign=bottom;endArrow=block;edgeStyle=elbowEdgeStyle;elbow=vertical;curved=0;rounded=0;" edge="1" parent="1">
          <mxGeometry width="80" relative="1" as="geometry">
            <mxPoint x="-599" y="704.27" as="sourcePoint" />
            <mxPoint x="-1009" y="704.27" as="targetPoint" />
          </mxGeometry>
        </mxCell>
        <mxCell id="NcGJeMchaAb6jBYALzay-102" value="re-write the password" style="html=1;verticalAlign=bottom;endArrow=open;dashed=1;endSize=8;edgeStyle=elbowEdgeStyle;elbow=vertical;curved=0;rounded=0;" edge="1" parent="1">
          <mxGeometry relative="1" as="geometry">
            <mxPoint x="-1010" y="740" as="sourcePoint" />
            <mxPoint x="-600" y="740" as="targetPoint" />
            <Array as="points">
              <mxPoint x="-710" y="740" />
              <mxPoint x="-700" y="760" />
            </Array>
          </mxGeometry>
        </mxCell>
        <mxCell id="NcGJeMchaAb6jBYALzay-103" value="write Username / Password" style="html=1;verticalAlign=bottom;endArrow=open;endSize=8;edgeStyle=elbowEdgeStyle;elbow=vertical;curved=0;rounded=0;" edge="1" parent="1">
          <mxGeometry relative="1" as="geometry">
            <mxPoint x="-595" y="680" as="sourcePoint" />
            <mxPoint x="-230" y="680" as="targetPoint" />
            <Array as="points">
              <mxPoint x="-295" y="680" />
              <mxPoint x="-285" y="700" />
            </Array>
          </mxGeometry>
        </mxCell>
        <mxCell id="NcGJeMchaAb6jBYALzay-104" value="re-write the password&lt;br&gt;verify passwords" style="html=1;verticalAlign=bottom;endArrow=open;endSize=8;edgeStyle=elbowEdgeStyle;elbow=vertical;curved=0;rounded=0;" edge="1" parent="1">
          <mxGeometry relative="1" as="geometry">
            <mxPoint x="-596" y="755" as="sourcePoint" />
            <mxPoint x="-231" y="755" as="targetPoint" />
            <Array as="points">
              <mxPoint x="-296" y="755" />
              <mxPoint x="-286" y="775" />
            </Array>
          </mxGeometry>
        </mxCell>
        <mxCell id="NcGJeMchaAb6jBYALzay-108" value="" style="group" vertex="1" connectable="0" parent="1">
          <mxGeometry x="-1030" y="780" width="820" height="200" as="geometry" />
        </mxCell>
        <mxCell id="NcGJeMchaAb6jBYALzay-132" value="" style="html=1;points=[];perimeter=orthogonalPerimeter;outlineConnect=0;targetShapes=umlLifeline;portConstraint=eastwest;newEdgeStyle={&quot;edgeStyle&quot;:&quot;elbowEdgeStyle&quot;,&quot;elbow&quot;:&quot;vertical&quot;,&quot;curved&quot;:0,&quot;rounded&quot;:0};fillColor=#d5e8d4;strokeColor=#82b366;" vertex="1" parent="NcGJeMchaAb6jBYALzay-108">
          <mxGeometry x="796" y="-110" width="10" height="240" as="geometry" />
        </mxCell>
        <mxCell id="NcGJeMchaAb6jBYALzay-109" value="frame" style="shape=umlFrame;whiteSpace=wrap;html=1;pointerEvents=0;fillColor=#dae8fc;strokeColor=#6c8ebf;" vertex="1" parent="NcGJeMchaAb6jBYALzay-108">
          <mxGeometry width="820" height="200" as="geometry" />
        </mxCell>
        <mxCell id="NcGJeMchaAb6jBYALzay-110" value="" style="endArrow=none;html=1;rounded=0;fillColor=#dae8fc;strokeColor=#6c8ebf;" edge="1" parent="NcGJeMchaAb6jBYALzay-108">
          <mxGeometry width="50" height="50" relative="1" as="geometry">
            <mxPoint y="99" as="sourcePoint" />
            <mxPoint x="820" y="99" as="targetPoint" />
          </mxGeometry>
        </mxCell>
        <mxCell id="NcGJeMchaAb6jBYALzay-111" value="if (Pass_1 == Pass_2 )" style="text;html=1;strokeColor=#666666;fillColor=#f5f5f5;align=center;verticalAlign=middle;whiteSpace=wrap;rounded=0;fontColor=#333333;" vertex="1" parent="NcGJeMchaAb6jBYALzay-108">
          <mxGeometry x="70" y="10" width="140" height="30" as="geometry" />
        </mxCell>
        <mxCell id="NcGJeMchaAb6jBYALzay-112" value="if (Pass_1 != Pass_2 )" style="text;html=1;strokeColor=#666666;fillColor=#f5f5f5;align=center;verticalAlign=middle;whiteSpace=wrap;rounded=0;fontColor=#333333;" vertex="1" parent="NcGJeMchaAb6jBYALzay-108">
          <mxGeometry x="60" y="110" width="140" height="30" as="geometry" />
        </mxCell>
        <mxCell id="NcGJeMchaAb6jBYALzay-113" value="the password is correct" style="html=1;verticalAlign=bottom;endArrow=open;dashed=1;endSize=8;edgeStyle=elbowEdgeStyle;elbow=vertical;curved=0;rounded=0;" edge="1" parent="NcGJeMchaAb6jBYALzay-108">
          <mxGeometry relative="1" as="geometry">
            <mxPoint x="800.1800000000001" y="39.999999999999886" as="sourcePoint" />
            <mxPoint x="430.0035294117646" y="39.999999999999886" as="targetPoint" />
            <Array as="points">
              <mxPoint x="740.6800000000001" y="40" />
              <mxPoint x="611.1800000000001" y="100" />
              <mxPoint x="621.1800000000001" y="120" />
            </Array>
          </mxGeometry>
        </mxCell>
        <mxCell id="NcGJeMchaAb6jBYALzay-115" value="Login Success&amp;nbsp;" style="html=1;verticalAlign=bottom;endArrow=block;edgeStyle=elbowEdgeStyle;elbow=vertical;curved=0;rounded=0;" edge="1" parent="NcGJeMchaAb6jBYALzay-108">
          <mxGeometry width="80" relative="1" as="geometry">
            <mxPoint x="430" y="70.29999999999995" as="sourcePoint" />
            <mxPoint x="20" y="70.29999999999995" as="targetPoint" />
          </mxGeometry>
        </mxCell>
        <mxCell id="NcGJeMchaAb6jBYALzay-116" value="" style="html=1;points=[];perimeter=orthogonalPerimeter;outlineConnect=0;targetShapes=umlLifeline;portConstraint=eastwest;newEdgeStyle={&quot;edgeStyle&quot;:&quot;elbowEdgeStyle&quot;,&quot;elbow&quot;:&quot;vertical&quot;,&quot;curved&quot;:0,&quot;rounded&quot;:0};" vertex="1" parent="NcGJeMchaAb6jBYALzay-108">
          <mxGeometry x="800" y="140" width="10" height="40" as="geometry" />
        </mxCell>
        <mxCell id="NcGJeMchaAb6jBYALzay-117" value="count++" style="html=1;align=left;spacingLeft=2;endArrow=block;rounded=0;edgeStyle=orthogonalEdgeStyle;curved=0;rounded=0;" edge="1" target="NcGJeMchaAb6jBYALzay-116" parent="NcGJeMchaAb6jBYALzay-108">
          <mxGeometry relative="1" as="geometry">
            <mxPoint x="805" y="120" as="sourcePoint" />
            <Array as="points">
              <mxPoint x="835" y="150" />
            </Array>
          </mxGeometry>
        </mxCell>
        <mxCell id="NcGJeMchaAb6jBYALzay-130" value="the password is not correct" style="html=1;verticalAlign=bottom;endArrow=open;dashed=1;endSize=8;edgeStyle=elbowEdgeStyle;elbow=vertical;curved=0;rounded=0;" edge="1" parent="NcGJeMchaAb6jBYALzay-108">
          <mxGeometry relative="1" as="geometry">
            <mxPoint x="800" y="149.9999999999999" as="sourcePoint" />
            <mxPoint x="429.82352941176464" y="149.9999999999999" as="targetPoint" />
            <Array as="points">
              <mxPoint x="740.5" y="150" />
              <mxPoint x="611" y="210" />
              <mxPoint x="621" y="230" />
            </Array>
          </mxGeometry>
        </mxCell>
        <mxCell id="NcGJeMchaAb6jBYALzay-131" value="Login Failed" style="html=1;verticalAlign=bottom;endArrow=block;edgeStyle=elbowEdgeStyle;elbow=vertical;curved=0;rounded=0;" edge="1" parent="NcGJeMchaAb6jBYALzay-108">
          <mxGeometry width="80" relative="1" as="geometry">
            <mxPoint x="430" y="170.29999999999995" as="sourcePoint" />
            <mxPoint x="20" y="170.29999999999995" as="targetPoint" />
          </mxGeometry>
        </mxCell>
        <mxCell id="NcGJeMchaAb6jBYALzay-129" value="while (count &amp;lt; 3)" style="text;html=1;strokeColor=#666666;fillColor=#f5f5f5;align=center;verticalAlign=middle;whiteSpace=wrap;rounded=0;fontColor=#333333;" vertex="1" parent="1">
          <mxGeometry x="-990" y="587.5" width="140" height="30" as="geometry" />
        </mxCell>
        <mxCell id="NcGJeMchaAb6jBYALzay-133" value="" style="html=1;points=[];perimeter=orthogonalPerimeter;outlineConnect=0;targetShapes=umlLifeline;portConstraint=eastwest;newEdgeStyle={&quot;edgeStyle&quot;:&quot;elbowEdgeStyle&quot;,&quot;elbow&quot;:&quot;vertical&quot;,&quot;curved&quot;:0,&quot;rounded&quot;:0};fillColor=#d5e8d4;strokeColor=#82b366;" vertex="1" parent="1">
          <mxGeometry x="-605" y="630" width="10" height="350" as="geometry" />
        </mxCell>
        <mxCell id="NcGJeMchaAb6jBYALzay-135" value="draw the login functionality sequence diagram that will help the developer to implement this functionality" style="text;html=1;strokeColor=#666666;fillColor=#f5f5f5;align=center;verticalAlign=middle;whiteSpace=wrap;rounded=0;fontColor=#333333;" vertex="1" parent="1">
          <mxGeometry x="-863.9999999999999" y="80" width="560" height="30" as="geometry" />
        </mxCell>
      </root>
    </mxGraphModel>
  </diagram>
</mxfile>
